<svg width="32" height="32" viewBox="0 0 32 32" fill="none" xmlns="http://www.w3.org/2000/svg">
  <!-- Green apple body -->
  <circle cx="16" cy="17" r="10" fill="#4ade80"/>
  
  <!-- Darker green shading for depth -->
  <circle cx="16" cy="17" r="10" fill="url(#greenGradient)" opacity="0.7"/>
  
  <!-- Apple stem/leaf on top -->
  <path d="M16 7 Q14 8, 13 7 Q12 6, 13 5 Q14 4, 15 5 Q16 6, 16 7 Z" fill="#6b7c3d"/>
  <ellipse cx="17.5" cy="6" rx="2.5" ry="1.5" fill="#6b7c3d" transform="rotate(30 17.5 6)"/>
  
  <!-- Left eye -->
  <circle cx="12" cy="15" r="1.5" fill="#000000"/>
  
  <!-- Right eye -->
  <circle cx="20" cy="15" r="1.5" fill="#000000"/>
  
  <!-- Smile -->
  <path d="M 13 19 Q 16 21, 19 19" stroke="#000000" stroke-width="1.2" fill="none" stroke-linecap="round"/>
  
  <!-- Left cheek blush -->
  <ellipse cx="10" cy="18" rx="1.5" ry="1" fill="#ffb3d9" opacity="0.6"/>
  
  <!-- Right cheek blush -->
  <ellipse cx="22" cy="18" rx="1.5" ry="1" fill="#ffb3d9" opacity="0.6"/>
  
  <!-- Highlight for shine -->
  <ellipse cx="12" cy="13" rx="2" ry="3" fill="#a7f3d0" opacity="0.5"/>
  
  <defs>
    <radialGradient id="greenGradient" cx="0.3" cy="0.3" r="0.8">
      <stop offset="0%" stop-color="#4ade80"/>
      <stop offset="100%" stop-color="#22c55e"/>
    </radialGradient>
  </defs>
</svg>